<svg xmlns="http://www.w3.org/2000/svg" xml:space="preserve" viewBox="0 0 512 512"><path d="M460.253 410.142h-45.898c-7.99 0-14.467-6.477-14.467-14.467s6.477-14.467 14.467-14.467h45.898c12.58 0 22.814-10.234 22.814-22.814V94.018c0-12.579-10.234-22.814-22.814-22.814H51.747c-12.58 0-22.814 10.234-22.814 22.814v264.378c0 12.58 10.234 22.814 22.814 22.814h273.402c7.99 0 14.467 6.477 14.467 14.467s-6.477 14.467-14.467 14.467H51.747C23.213 410.142 0 386.929 0 358.396V94.018c0-28.532 23.213-51.747 51.747-51.747h408.506c28.534 0 51.747 23.213 51.747 51.747v264.378c0 28.533-23.213 51.746-51.747 51.746z" style="fill:#2d527c"/><path d="M186.85 395.674h138.3v59.588h-138.3z" style="fill:#cee8fa"/><path d="M325.149 469.729H186.851c-7.99 0-14.467-6.477-14.467-14.467v-59.585c0-7.99 6.477-14.467 14.467-14.467h138.297c7.99 0 14.467 6.477 14.467 14.467v59.585c0 7.99-6.477 14.467-14.466 14.467zm-123.831-28.933h109.364v-30.652H201.318v30.652z" style="fill:#2d527c"/><path d="M368.433 469.729H143.567c-7.99 0-14.467-6.477-14.467-14.467s6.477-14.467 14.467-14.467h224.865c7.99 0 14.467 6.477 14.467 14.467s-6.477 14.467-14.466 14.467z" style="fill:#2d527c"/><path d="M218.213 333.575H142.64V242.98c0-20.869 16.917-37.787 37.787-37.787 20.869 0 37.787 16.917 37.787 37.787v90.595z" style="fill:#cee8fa"/><path d="M218.213 348.04H142.64c-7.99 0-14.467-6.477-14.467-14.467v-90.595c0-28.813 23.442-52.253 52.253-52.253s52.253 23.44 52.253 52.253v90.595c.001 7.991-6.476 14.467-14.466 14.467zm-61.106-28.933h46.64v-76.129c0-12.858-10.461-23.32-23.32-23.32s-23.32 10.461-23.32 23.32v76.129z" style="fill:#2d527c"/><path d="M293.787 333.575h-75.573V197.632c0-20.869 16.917-37.787 37.787-37.787 20.869 0 37.787 16.917 37.787 37.787l-.001 135.943z" style="fill:#cee8fa"/><path d="M293.787 348.04h-75.573c-7.99 0-14.467-6.477-14.467-14.467V197.63c0-28.813 23.442-52.253 52.253-52.253s52.253 23.44 52.253 52.253v135.944c0 7.99-6.477 14.466-14.466 14.466zm-61.107-28.933h46.64V197.63c0-12.858-10.461-23.32-23.32-23.32s-23.32 10.461-23.32 23.32v121.477z" style="fill:#2d527c"/><path d="M369.36 348.04h-75.573c-7.99 0-14.467-6.477-14.467-14.467v-181.29c0-28.813 23.44-52.253 52.253-52.253s52.253 23.442 52.253 52.253v90.937c0 7.99-6.477 14.467-14.467 14.467s-14.467-6.477-14.467-14.467v-90.937c0-12.859-10.461-23.32-23.32-23.32-12.858 0-23.32 10.461-23.32 23.32v166.825h61.107c7.99 0 14.467 6.477 14.467 14.467s-6.476 14.465-14.466 14.465z" style="fill:#2d527c"/></svg>