<?xml version="1.0" encoding="iso-8859-1"?>
<!-- Uploaded to: SVG Repo, www.svgrepo.com, Generator: SVG Repo Mixer Tools -->
<svg height="800px" width="800px" version="1.1" id="Layer_1" xmlns="http://www.w3.org/2000/svg" xmlns:xlink="http://www.w3.org/1999/xlink" 
	 viewBox="0 0 512 512" xml:space="preserve">
<polygon style="fill:#E0B76E;" points="376.808,187.877 256,512 28.996,384.006 28.996,127.994 "/>
<polygon style="fill:#F4CE8F;" points="483.004,127.994 483.004,384.006 256,512 256,256 250.414,252.854 28.996,127.994 
	250.414,3.146 256,0 261.586,3.146 "/>
<polygon style="fill:#F2CA7F;" points="256,256 256,512 483.004,384.006 483.004,127.994 "/>
<path style="fill:#8CC1EA;" d="M295.982,200.254c-43.904-43.904-115.087-43.904-158.991,0
	c-39.021,39.021-43.329,99.575-12.988,143.389L45.707,421.95c-8.05,8.05-8.062,21.113,0,29.175c8.062,8.062,21.125,8.05,29.175,0
	l78.412-78.402c43.757,29.808,103.875,25.333,142.686-13.479C339.886,315.341,339.886,244.158,295.982,200.254z"/>
<path style="fill:#E4F2F9;" d="M272.703,335.959c-12.572,12.572-28.314,20.06-44.654,22.453
	c-24.008,3.505-49.308-3.971-67.777-22.453c-31.042-31.042-31.042-81.378,0-112.419c18.469-18.469,43.769-25.946,67.777-22.441
	c16.34,2.392,32.082,9.881,44.654,22.441C303.744,254.581,303.744,304.918,272.703,335.959z"/>
<path style="fill:#CEE5F2;" d="M275.095,335.959c-12.572,12.572-28.314,20.06-44.654,22.453
	c-16.34-2.392-32.082-9.881-44.642-22.453c-31.053-31.042-31.053-81.378,0-112.419c12.56-12.56,28.302-20.048,44.642-22.441
	c16.34,2.392,32.082,9.881,44.654,22.441C306.137,254.581,306.137,304.918,275.095,335.959z"/>
<path style="fill:#79B1D6;" d="M216.486,364.588c-21.736,0-43.471-8.274-60.018-24.82c-16.032-16.032-24.861-37.347-24.861-60.018
	c0-22.672,8.829-43.987,24.861-60.018c33.093-33.094,86.944-33.094,120.037,0c16.032,16.032,24.861,37.347,24.861,60.018
	c0,22.672-8.829,43.987-24.861,60.018l0,0C259.957,356.315,238.222,364.588,216.486,364.588z M216.486,205.672
	c-18.979,0-37.957,7.224-52.407,21.673c-13.998,13.998-21.706,32.609-21.706,52.406s7.708,38.408,21.706,52.406
	c28.897,28.897,75.916,28.897,104.813,0c13.998-13.998,21.706-32.61,21.706-52.406c0-19.796-7.708-38.408-21.706-52.406
	C254.443,212.896,235.465,205.672,216.486,205.672z"/>
<g>
	<polygon style="fill:#898686;" points="354.76,261.771 354.76,282.381 456.27,225.131 456.27,204.532 	"/>
	<polygon style="fill:#898686;" points="354.76,313.088 354.76,333.698 456.27,276.46 456.27,255.861 	"/>
</g>
</svg>